<svg width="60" height="60" viewBox="0 0 60 60" fill="none" xmlns="http://www.w3.org/2000/svg">
<g clip-path="url(#clip0_249_728)">
<path d="M40.6452 27.0968H42.5806V7.74194H33.871V9.67743H40.6452V27.0968Z" fill="#081025"/>
<path d="M40.6452 58.0645H9.67742V50.3226H1.93548V9.67743H8.70968V7.74194H0V51.691L8.30903 60H42.5806V52.2581H40.6452V58.0645ZM7.74194 56.6961L3.30387 52.2581H7.74194V56.6961Z" fill="#081025"/>
<path d="M38.63 30.5144C36.2337 30.5144 33.8913 31.225 31.8989 32.5562C29.9065 33.8875 28.3536 35.7797 27.4367 37.9935C26.5197 40.2074 26.2797 42.6434 26.7472 44.9936C27.2147 47.3438 28.3686 49.5026 30.063 51.197C31.7574 52.8913 33.9162 54.0452 36.2663 54.5127C38.6165 54.9802 41.0526 54.7403 43.2664 53.8233C45.4802 52.9063 47.3724 51.3534 48.7037 49.361C50.035 47.3686 50.7455 45.0262 50.7455 42.63C50.7455 39.4167 49.4691 36.3351 47.197 34.063C44.9249 31.7909 41.8432 30.5144 38.63 30.5144ZM43.5519 50.1416H33.8898C33.6536 50.1411 33.4261 50.0523 33.252 49.8926C33.0779 49.733 32.9698 49.514 32.949 49.2787C32.9281 49.0434 32.996 48.8089 33.1392 48.621C33.2824 48.4332 33.4907 48.3058 33.7232 48.2637C33.8367 48.2637 35.0256 47.8927 35.0256 45.5831V43.3872H33.1325C32.9317 43.3872 32.7391 43.3074 32.5971 43.1654C32.4551 43.0234 32.3753 42.8308 32.3753 42.63C32.3753 42.4291 32.4551 42.2365 32.5971 42.0945C32.7391 41.9525 32.9317 41.8727 33.1325 41.8727H35.0256V37.9958C35.0105 37.4127 35.1107 36.8325 35.3204 36.2883C35.5301 35.7441 35.8452 35.2466 36.2476 34.8245C36.6501 34.4024 37.1319 34.0639 37.6654 33.8284C38.199 33.593 38.7738 33.4652 39.3569 33.4524C39.9621 33.457 40.5594 33.5903 41.1091 33.8436C41.6587 34.0969 42.1482 34.4643 42.5448 34.9214C42.6288 35.0144 42.6937 35.123 42.7358 35.2411C42.7778 35.3591 42.7962 35.4843 42.7899 35.6095C42.7836 35.7346 42.7526 35.8573 42.6989 35.9705C42.6451 36.0837 42.5696 36.1853 42.4767 36.2693C42.3837 36.3533 42.2751 36.4182 42.157 36.4603C42.039 36.5023 41.9138 36.5207 41.7886 36.5144C41.6635 36.508 41.5408 36.4771 41.4276 36.4234C41.3143 36.3696 41.2128 36.2941 41.1288 36.2011C40.9141 35.9474 40.6476 35.7425 40.3472 35.6001C40.0469 35.4578 39.7195 35.3813 39.3872 35.3758C38.717 35.4014 38.0842 35.6915 37.6272 36.1825C37.1703 36.6734 36.9264 37.3254 36.9489 37.9958V41.8727H39.2206C39.4214 41.8727 39.614 41.9525 39.756 42.0945C39.898 42.2365 39.9778 42.4291 39.9778 42.63C39.9778 42.8308 39.898 43.0234 39.756 43.1654C39.614 43.3074 39.4214 43.3872 39.2206 43.3872H36.9489V45.5831C36.9672 46.506 36.7647 47.4198 36.3583 48.2485H43.5519C43.8029 48.2485 44.0437 48.3483 44.2212 48.5258C44.3987 48.7033 44.4984 48.944 44.4984 49.1951C44.4984 49.4461 44.3987 49.6869 44.2212 49.8644C44.0437 50.0419 43.8029 50.1416 43.5519 50.1416Z" fill="#081025"/>
<path d="M56.8751 31.9355L54.8022 34.8387H48.3871V36.7742H53.4193L52.438 38.1474L54.0126 39.272L59.2529 31.9355L54.0126 24.5991L52.438 25.7236L53.4193 27.0968H44.5161V29.0323H54.8022L56.8751 31.9355Z" fill="#081025"/>
<path d="M60 44.5162V42.5807H52.0645L53.0448 41.2075L51.4703 40.0829L46.23 47.4194L51.4703 54.7559L53.0448 53.6313L52.0645 52.2581H60V50.3226H50.6816L48.6077 47.4194L50.6816 44.5162H60Z" fill="#081025"/>
<path d="M21.2903 44.5162V42.5807H16.258L17.2384 41.2075L15.6638 40.0829L10.4235 47.4194L15.6638 54.7559L17.2384 53.6313L16.258 52.2581H26.129V50.3226H14.8751L12.8013 47.4194L14.8751 44.5162H21.2903Z" fill="#081025"/>
<path d="M16.6316 38.1474L18.2061 39.272L23.4465 31.9355L18.2061 24.5991L16.6316 25.7236L17.6129 27.0968H9.67743V29.0323H18.9958L21.0687 31.9355L18.9958 34.8387H9.67743V36.7742H17.6129L16.6316 38.1474Z" fill="#081025"/>
<path d="M29.08 10.9716V20.3077H23.8619V14.4736H19.5229V20.3077H14.3047V10.9716L21.6924 4.4743L29.08 10.9716Z" fill="#081025"/>
<path d="M11.0769 8.61054L21.6923 -0.87793L32.3077 8.61054L31.0724 10.6168L21.6923 2.23249L12.3122 10.6168L11.0769 8.61054Z" fill="#081025"/>
<path d="M29.316 -1.84619V4.22637L26.692 1.8793V-1.84619H29.316Z" fill="#081025"/>
</g>
<defs>
<clipPath id="clip0_249_728">
<rect width="60" height="60" fill="white"/>
</clipPath>
</defs>
</svg>
