<svg width="60" height="60" viewBox="0 0 60 60" fill="none" xmlns="http://www.w3.org/2000/svg">
<g clip-path="url(#clip0_249_760)">
<path d="M59.6773 58.1197L45.1139 43.5564C49.3695 38.9273 51.9718 32.7555 51.9718 25.987C51.9718 11.6575 40.315 0 25.9868 0C11.6578 0 0 11.6575 0 25.9868C0 40.315 11.6575 51.9721 25.9865 51.9721C32.7553 51.9721 38.927 49.3697 43.5559 45.1142L58.1192 59.6773C58.3343 59.8923 58.6161 60 58.8981 60C59.1799 60 59.4619 59.8923 59.677 59.6773C60.1077 59.2471 60.1077 58.5499 59.6773 58.1197ZM2.20303 25.9868C2.20303 12.8724 12.8724 2.20303 25.9868 2.20303C39.1002 2.20303 49.769 12.8724 49.769 25.9868C49.769 39.1002 39.1002 49.769 25.9868 49.769C12.8721 49.769 2.20303 39.1002 2.20303 25.9868Z" fill="#081025"/>
<path d="M34.0031 26.8178V36.1539H28.7849V30.3198H24.446V36.1539H19.2278V26.8178L26.6155 20.3205L34.0031 26.8178Z" fill="#081025"/>
<path d="M16 24.4567L26.6154 14.9683L37.2308 24.4567L35.9955 26.463L26.6154 18.0787L17.2353 26.463L16 24.4567Z" fill="#081025"/>
<path d="M34.2391 14V20.0726L31.6151 17.7255V14H34.2391Z" fill="#081025"/>
</g>
<defs>
<clipPath id="clip0_249_760">
<rect width="60" height="60" fill="white"/>
</clipPath>
</defs>
</svg>
