<svg width="60" height="60" viewBox="0 0 60 60" fill="none" xmlns="http://www.w3.org/2000/svg">
<path fill-rule="evenodd" clip-rule="evenodd" d="M30.0864 8.30768L53.7117 26.0264L52.5867 29.4014H50.7114V50.9639H9.46154V29.4014H7.58654L6.46154 26.0264L30.0864 8.30768ZM13.2115 25.6514V47.2139H46.9614V25.6514L30.0864 12.9952L13.2115 25.6514Z" fill="#081025"/>
<path d="M30 23.0769C28.6307 23.0769 27.2922 23.4829 26.1537 24.2437C25.0152 25.0044 24.1279 26.0856 23.6039 27.3506C23.0799 28.6157 22.9428 30.0077 23.2099 31.3506C23.4771 32.6935 24.1364 33.9271 25.1046 34.8953C26.0729 35.8635 27.3064 36.5229 28.6494 36.79C29.9923 37.0572 31.3843 36.9201 32.6493 36.3961C33.9144 35.8721 34.9956 34.9847 35.7563 33.8462C36.517 32.7077 36.9231 31.3692 36.9231 30C36.9231 28.1639 36.1937 26.403 34.8954 25.1046C33.597 23.8063 31.8361 23.0769 30 23.0769ZM32.8125 34.2923H27.2913C27.1564 34.292 27.0264 34.2413 26.9269 34.15C26.8275 34.0588 26.7657 33.9337 26.7538 33.7992C26.7418 33.6648 26.7806 33.5307 26.8625 33.4234C26.9443 33.3161 27.0633 33.2433 27.1962 33.2192C27.2611 33.2192 27.9404 33.0072 27.9404 31.6875V30.4327H26.8587C26.7439 30.4327 26.6338 30.3871 26.5527 30.3059C26.4715 30.2248 26.426 30.1147 26.426 30C26.426 29.8852 26.4715 29.7752 26.5527 29.694C26.6338 29.6129 26.7439 29.5673 26.8587 29.5673H27.9404V27.3519C27.9318 27.0188 27.989 26.6872 28.1088 26.3762C28.2287 26.0652 28.4087 25.781 28.6387 25.5398C28.8686 25.2986 29.144 25.1052 29.4489 24.9706C29.7537 24.8361 30.0822 24.763 30.4154 24.7558C30.7612 24.7583 31.1025 24.8345 31.4166 24.9793C31.7307 25.124 32.0104 25.334 32.237 25.5952C32.285 25.6483 32.3221 25.7104 32.3461 25.7778C32.3702 25.8453 32.3807 25.9168 32.3771 25.9883C32.3734 26.0599 32.3558 26.13 32.3251 26.1947C32.2944 26.2593 32.2512 26.3174 32.1981 26.3654C32.1449 26.4134 32.0829 26.4505 32.0154 26.4745C31.948 26.4985 31.8764 26.509 31.8049 26.5054C31.7334 26.5018 31.6633 26.4841 31.5986 26.4534C31.5339 26.4227 31.4759 26.3796 31.4279 26.3264C31.3052 26.1814 31.1529 26.0643 30.9813 25.983C30.8096 25.9017 30.6226 25.8579 30.4327 25.8548C30.0497 25.8694 29.6881 26.0352 29.427 26.3157C29.1659 26.5963 29.0266 26.9689 29.0394 27.3519V29.5673H30.3375C30.4523 29.5673 30.5623 29.6129 30.6435 29.694C30.7246 29.7752 30.7702 29.8852 30.7702 30C30.7702 30.1147 30.7246 30.2248 30.6435 30.3059C30.5623 30.3871 30.4523 30.4327 30.3375 30.4327H29.0394V31.6875C29.0499 32.2148 28.9342 32.737 28.7019 33.2106H32.8125C32.9559 33.2106 33.0935 33.2675 33.1949 33.369C33.2964 33.4704 33.3534 33.608 33.3534 33.7514C33.3534 33.8949 33.2964 34.0324 33.1949 34.1339C33.0935 34.2353 32.9559 34.2923 32.8125 34.2923Z" fill="#081025"/>
</svg>
