<svg width="60" height="60" viewBox="0 0 60 60" fill="none" xmlns="http://www.w3.org/2000/svg">
<path d="M27.5964 30.3142C26.905 30.428 25.8796 31.0578 24.3926 32.0052C23.596 32.5148 22.39 33.2844 22.1612 33.3362C21.419 33.1518 15.5434 31.623 15.5434 31.623C15.3628 31.571 15.1772 31.6082 15.025 31.7084C14.8716 31.8098 14.7678 31.9694 14.7404 32.15L13.1658 42.292C13.1164 42.6198 13.3192 42.9314 13.6396 43.018L18.825 44.4084C18.4268 44.996 18.3748 45.7914 18.7286 46.4728C19.1876 47.3548 20.1696 47.9882 21.1716 48.0662C21.2298 48.175 21.2992 48.2852 21.377 48.3926C21.9484 49.1634 22.9368 49.668 23.915 49.6966C23.9992 49.845 24.102 49.9924 24.2206 50.1356C24.8032 50.8258 25.6938 51.2762 26.5894 51.3416C26.6748 51.5172 26.7824 51.6856 26.911 51.8476C27.4552 52.5104 28.2816 52.9064 29.1214 52.9064C29.855 52.9064 30.5018 52.5824 30.9052 52.0058C31.1216 51.6818 32.251 49.7224 32.251 49.7224C32.6332 49.8844 32.857 49.9808 32.8756 49.9882C33.9406 50.4052 35.0342 49.8498 35.4684 48.703C35.5438 48.5002 35.5946 48.301 35.6218 48.1044C36.7436 48.5212 38.0376 47.93 38.4778 46.834C38.625 46.4678 38.667 46.0918 38.609 45.7318C38.8068 45.6934 46.3672 43.562 46.3672 43.562C46.6852 43.473 46.8844 43.16 46.8336 42.8358L44.9856 31.3444C44.957 31.1652 44.8532 31.0056 44.701 30.9054C44.5514 30.8076 44.3658 30.7742 44.1852 30.82L37.7652 32.4576C37.466 32.3698 36.6074 31.953 34.3054 30.575C32.3734 29.4146 31.8228 29.119 31.2676 29.119C30.5896 29.119 29.1584 29.8564 28.1962 30.4452C28.0122 30.3514 27.8228 30.3106 27.5964 30.3142ZM43.3394 32.9738L44.8016 42.0508L42.0308 42.8264C42.3092 42.5318 42.533 42.1782 42.6814 41.7786C43.0536 40.6902 42.747 39.5916 41.8602 38.8928C41.8402 38.878 36.9666 36.1404 33.132 33.778C33.0292 33.715 32.9118 33.6816 32.7918 33.6816C32.7832 33.6816 31.6068 33.7262 31.6068 33.7262C31.5202 33.73 31.435 33.7508 31.3556 33.788C30.0024 34.4252 29.8552 34.9472 29.8082 35.1202C29.6834 35.5718 29.102 37.6932 28.8162 38.8026C28.1296 38.9238 26.7938 38.3004 26.5722 37.8328C26.6464 37.479 26.743 36.9818 26.8494 36.44C27.077 35.2722 27.3604 33.819 27.4988 33.3402C27.7882 32.7934 30.6754 31.084 31.1912 30.9912C31.4498 31.058 32.4938 31.68 33.3312 32.1798C35.5106 33.4824 37.0036 34.337 37.9214 34.337C38.3186 34.337 41.9442 33.33 43.3394 32.9738ZM29.1216 51.0238C28.8582 51.0238 28.5478 50.8692 28.3708 50.6476C28.2272 50.4706 28.1816 50.2766 28.2298 50.0564C28.2842 49.8078 28.1878 49.5504 27.9848 49.3984C27.8698 49.3128 27.7336 49.2696 27.5976 49.2696C27.49 49.2696 27.381 49.2968 27.2834 49.3512C26.8132 49.6122 26.0366 49.3784 25.6532 48.917C25.5394 48.7822 25.4132 48.5694 25.4588 48.327C25.507 48.066 25.3896 47.8 25.1644 47.659C24.9368 47.5216 24.6486 47.5316 24.4358 47.6898C24.2974 47.7938 24.1216 47.8148 23.999 47.8148C23.5896 47.8148 23.122 47.5872 22.8906 47.2742C22.7028 47.0196 22.761 46.8288 22.7806 46.7672C22.8634 46.4986 22.762 46.2068 22.532 46.0448C22.3008 45.8864 21.9928 45.8926 21.77 46.0596C21.4198 46.323 20.8806 46.161 20.5404 45.7962C20.3834 45.6292 20.3586 45.508 20.3562 45.5004L21.4422 43.906C21.6018 43.6462 22.036 43.8874 22.3082 44.1978C22.443 44.3524 22.4824 44.4812 22.475 44.5306C22.4356 44.8348 22.6148 45.1268 22.9054 45.2282C23.1936 45.3272 23.518 45.2096 23.6738 44.9462C24.093 44.2422 24.4456 43.8564 24.7016 43.8044C25.116 43.7426 25.4724 43.8912 25.7654 44.1918C25.9684 44.402 26.0548 44.6222 26.05 44.746C26.04 45.0418 26.2304 45.3064 26.515 45.3906C26.7982 45.4734 27.1002 45.3558 27.2534 45.1024C27.773 44.2378 28.8428 44.6842 29.2054 45.2334C29.3142 45.3992 29.3564 45.5588 29.3168 45.6542C29.198 45.9336 29.2882 46.259 29.537 46.4358C29.787 46.614 30.1234 46.5916 30.3486 46.3852C30.6022 46.1552 31.2306 46.389 31.4434 46.7648C31.5634 46.9774 31.5474 47.2038 31.394 47.4576C31.1824 47.8064 29.5868 50.5894 29.3418 50.952C29.2986 51.0138 29.1874 51.0238 29.1216 51.0238Z" fill="#081025"/>
<path d="M30.846 13.0846C30.361 12.6652 29.6388 12.6652 29.1538 13.0846L9.62942 29.926C9.34482 30.171 9.18042 30.5296 9.18042 30.9056V55.2614C9.18042 55.9776 9.75942 56.5566 10.4756 56.5566H49.5244C50.2406 56.5566 50.8196 55.9776 50.8196 55.2614V30.9056C50.8196 30.5294 50.655 30.1708 50.3706 29.926L30.846 13.0846ZM48.2292 53.9664H11.7708V31.4994L30 15.7762L48.2292 31.4994V53.9664Z" fill="#081025"/>
<path d="M57.598 26.3498L31.6884 4.06961C30.7174 3.23461 29.2826 3.23461 28.3114 4.06961L2.40201 26.3498C1.31701 27.2838 1.19341 28.9204 2.12601 30.004C3.06001 31.09 4.69661 31.2112 5.78021 30.2798L30 9.45161L54.22 30.2798C54.7086 30.7004 55.3098 30.9058 55.9074 30.9058C56.637 30.9058 57.3608 30.6002 57.8742 30.004C58.8066 28.9204 58.683 27.2838 57.598 26.3498Z" fill="#081025"/>
</svg>
